<mxfile host="app.diagrams.net" agent="Mozilla/5.0 (Windows NT 10.0; Win64; x64) AppleWebKit/537.36 (KHTML, like Gecko) Chrome/134.0.0.0 Safari/537.36" version="26.1.1">
  <diagram name="第 1 页" id="MjtsM4SmXCImTpvD8nv4">
    <mxGraphModel dx="877" dy="468" grid="1" gridSize="10" guides="1" tooltips="1" connect="1" arrows="1" fold="1" page="1" pageScale="1" pageWidth="827" pageHeight="1169" math="0" shadow="0">
      <root>
        <mxCell id="0" />
        <mxCell id="1" parent="0" />
        <mxCell id="a_Zylrl6LcabE5W4-iHh-2" value="M1&amp;gt;M2" style="rounded=0;whiteSpace=wrap;html=1;fontSize=10;fontFamily=Times New Roman;fontStyle=2;fillColor=#d5e8d4;strokeColor=#82b366;fillStyle=solid;" vertex="1" parent="1">
          <mxGeometry x="350" y="580" width="40" height="20" as="geometry" />
        </mxCell>
        <mxCell id="a_Zylrl6LcabE5W4-iHh-3" value="L/U&amp;gt;M1" style="rounded=0;whiteSpace=wrap;html=1;fontFamily=Times New Roman;fontStyle=2;fontSize=10;fillColor=#d5e8d4;strokeColor=#82b366;shadow=0;glass=0;fillStyle=auto;" vertex="1" parent="1">
          <mxGeometry x="200" y="580" width="40" height="20" as="geometry" />
        </mxCell>
        <mxCell id="a_Zylrl6LcabE5W4-iHh-4" value="" style="endArrow=classic;html=1;rounded=0;" edge="1" parent="1">
          <mxGeometry width="50" height="50" relative="1" as="geometry">
            <mxPoint x="200" y="599.67" as="sourcePoint" />
            <mxPoint x="710" y="600" as="targetPoint" />
          </mxGeometry>
        </mxCell>
        <mxCell id="a_Zylrl6LcabE5W4-iHh-5" value="" style="endArrow=classic;html=1;rounded=0;" edge="1" parent="1">
          <mxGeometry width="50" height="50" relative="1" as="geometry">
            <mxPoint x="200" y="600" as="sourcePoint" />
            <mxPoint x="200" y="390" as="targetPoint" />
          </mxGeometry>
        </mxCell>
        <mxCell id="a_Zylrl6LcabE5W4-iHh-6" value="&lt;font style=&quot;font-size: 10px;&quot; face=&quot;Times New Roman&quot;&gt;&lt;i&gt;A&lt;sub&gt;1&lt;/sub&gt;&lt;/i&gt;&lt;/font&gt;" style="text;html=1;align=center;verticalAlign=middle;resizable=0;points=[];autosize=1;strokeColor=none;fillColor=none;" vertex="1" parent="1">
          <mxGeometry x="170" y="570" width="30" height="30" as="geometry" />
        </mxCell>
        <mxCell id="a_Zylrl6LcabE5W4-iHh-7" value="&lt;font face=&quot;Times New Roman&quot;&gt;&lt;span style=&quot;font-size: 10px;&quot;&gt;&lt;i&gt;A&lt;sub&gt;2&lt;/sub&gt;&lt;/i&gt;&lt;/span&gt;&lt;/font&gt;" style="text;html=1;align=center;verticalAlign=middle;resizable=0;points=[];autosize=1;strokeColor=none;fillColor=none;" vertex="1" parent="1">
          <mxGeometry x="170" y="535" width="30" height="30" as="geometry" />
        </mxCell>
        <mxCell id="a_Zylrl6LcabE5W4-iHh-8" value="&lt;i style=&quot;font-family: &amp;quot;Times New Roman&amp;quot;; font-size: 10px;&quot;&gt;M&lt;/i&gt;&lt;i style=&quot;font-family: &amp;quot;Times New Roman&amp;quot;; font-size: 8.33333px;&quot;&gt;&lt;sub&gt;1&lt;/sub&gt;&lt;/i&gt;" style="text;html=1;align=center;verticalAlign=middle;resizable=0;points=[];autosize=1;strokeColor=none;fillColor=none;" vertex="1" parent="1">
          <mxGeometry x="165" y="500" width="40" height="30" as="geometry" />
        </mxCell>
        <mxCell id="a_Zylrl6LcabE5W4-iHh-10" value="&lt;span style=&quot;font-size: 8.33333px;&quot;&gt;O&lt;sub&gt;21&lt;/sub&gt;&lt;/span&gt;" style="rounded=0;whiteSpace=wrap;html=1;fontSize=10;fontStyle=2;fontFamily=Times New Roman;fillColor=#d5e8d4;strokeColor=#82b366;" vertex="1" parent="1">
          <mxGeometry x="240" y="500" width="80" height="20" as="geometry" />
        </mxCell>
        <mxCell id="a_Zylrl6LcabE5W4-iHh-11" value="&lt;sub&gt;&lt;span&gt;O&lt;/span&gt;12&lt;/sub&gt;" style="rounded=0;whiteSpace=wrap;html=1;fontSize=10;fontFamily=Times New Roman;fontStyle=2;fillColor=#d0cee2;strokeColor=#56517e;" vertex="1" parent="1">
          <mxGeometry x="460" y="500" width="150" height="20" as="geometry" />
        </mxCell>
        <mxCell id="a_Zylrl6LcabE5W4-iHh-12" value="O&lt;sub&gt;22&lt;/sub&gt;" style="rounded=0;whiteSpace=wrap;html=1;fontSize=10;fontStyle=2;fontFamily=Times New Roman;fillColor=#d5e8d4;strokeColor=#82b366;" vertex="1" parent="1">
          <mxGeometry x="390" y="460" width="60" height="20" as="geometry" />
        </mxCell>
        <mxCell id="a_Zylrl6LcabE5W4-iHh-13" value="&lt;font&gt;O&lt;sub&gt;31&lt;/sub&gt;&lt;/font&gt;" style="rounded=0;whiteSpace=wrap;html=1;fontFamily=Times New Roman;fillColor=#ffe6cc;strokeColor=#d79b00;fontStyle=2;fontSize=10;" vertex="1" parent="1">
          <mxGeometry x="340" y="500" width="120" height="20" as="geometry" />
        </mxCell>
        <mxCell id="a_Zylrl6LcabE5W4-iHh-14" value="charge" style="rounded=0;whiteSpace=wrap;html=1;fontFamily=Times New Roman;fontStyle=2;fontSize=10;fillColor=#f8cecc;strokeColor=#b85450;gradientColor=#ea6b66;" vertex="1" parent="1">
          <mxGeometry x="380" y="420" width="30" height="20" as="geometry" />
        </mxCell>
        <mxCell id="a_Zylrl6LcabE5W4-iHh-15" value="charge" style="rounded=0;whiteSpace=wrap;html=1;fontFamily=Times New Roman;fontStyle=2;fontSize=10;fillColor=#dae8fc;gradientColor=#7ea6e0;strokeColor=#6c8ebf;" vertex="1" parent="1">
          <mxGeometry x="430" y="420" width="30" height="20" as="geometry" />
        </mxCell>
        <mxCell id="a_Zylrl6LcabE5W4-iHh-16" value="&lt;font style=&quot;font-size: 10px;&quot;&gt;&lt;i&gt;O&lt;sub style=&quot;&quot;&gt;32&lt;/sub&gt;&lt;/i&gt;&lt;/font&gt;" style="rounded=0;whiteSpace=wrap;html=1;fontFamily=Times New Roman;fillColor=#ffe6cc;strokeColor=#d79b00;" vertex="1" parent="1">
          <mxGeometry x="550" y="460" width="40" height="20" as="geometry" />
        </mxCell>
        <mxCell id="a_Zylrl6LcabE5W4-iHh-18" value="" style="rounded=0;whiteSpace=wrap;html=1;fontSize=10;fontFamily=Times New Roman;fontStyle=2;fillColor=#d0cee2;strokeColor=#56517e;" vertex="1" parent="1">
          <mxGeometry x="360" y="390" width="20" height="10" as="geometry" />
        </mxCell>
        <mxCell id="a_Zylrl6LcabE5W4-iHh-19" value="&lt;span style=&quot;font-size: 8.33333px;&quot;&gt;O&lt;/span&gt;&lt;span style=&quot;font-size: 8.33333px;&quot;&gt;11&lt;/span&gt;" style="rounded=0;whiteSpace=wrap;html=1;fontSize=10;fontFamily=Times New Roman;fontStyle=2;fillColor=#d0cee2;strokeColor=#56517e;" vertex="1" parent="1">
          <mxGeometry x="250" y="460" width="50" height="20" as="geometry" />
        </mxCell>
        <mxCell id="a_Zylrl6LcabE5W4-iHh-20" value="" style="rounded=0;whiteSpace=wrap;html=1;fontSize=10;fontStyle=2;fontFamily=Times New Roman;fillColor=#d5e8d4;strokeColor=#82b366;" vertex="1" parent="1">
          <mxGeometry x="420" y="390" width="20" height="10" as="geometry" />
        </mxCell>
        <mxCell id="a_Zylrl6LcabE5W4-iHh-21" value="" style="rounded=0;whiteSpace=wrap;html=1;fontFamily=Times New Roman;fillColor=#ffe6cc;strokeColor=#d79b00;" vertex="1" parent="1">
          <mxGeometry x="490" y="390" width="20" height="10" as="geometry" />
        </mxCell>
        <mxCell id="a_Zylrl6LcabE5W4-iHh-26" value="Job1" style="text;html=1;align=center;verticalAlign=middle;resizable=0;points=[];autosize=1;strokeColor=none;fillColor=none;fontSize=10;fontFamily=Times New Roman;fontStyle=2" vertex="1" parent="1">
          <mxGeometry x="380" y="380" width="40" height="30" as="geometry" />
        </mxCell>
        <mxCell id="a_Zylrl6LcabE5W4-iHh-27" value="Job2" style="text;html=1;align=center;verticalAlign=middle;resizable=0;points=[];autosize=1;strokeColor=none;fillColor=none;fontSize=10;fontFamily=Times New Roman;fontStyle=2" vertex="1" parent="1">
          <mxGeometry x="440" y="380" width="40" height="30" as="geometry" />
        </mxCell>
        <mxCell id="a_Zylrl6LcabE5W4-iHh-28" value="Job3" style="text;html=1;align=center;verticalAlign=middle;resizable=0;points=[];autosize=1;strokeColor=none;fillColor=none;fontSize=10;fontFamily=Times New Roman;fontStyle=2" vertex="1" parent="1">
          <mxGeometry x="510" y="380" width="40" height="30" as="geometry" />
        </mxCell>
        <mxCell id="a_Zylrl6LcabE5W4-iHh-30" value="time" style="text;html=1;align=center;verticalAlign=middle;resizable=0;points=[];autosize=1;strokeColor=none;fillColor=none;fontSize=10;fontFamily=Times New Roman;fontStyle=0" vertex="1" parent="1">
          <mxGeometry x="650" y="660" width="40" height="30" as="geometry" />
        </mxCell>
        <mxCell id="a_Zylrl6LcabE5W4-iHh-31" value="C&lt;sub&gt;max&lt;/sub&gt;" style="text;html=1;align=center;verticalAlign=middle;resizable=0;points=[];autosize=1;strokeColor=none;fillColor=none;fontSize=10;fontFamily=Times New Roman;fontStyle=2" vertex="1" parent="1">
          <mxGeometry x="590" y="640" width="40" height="30" as="geometry" />
        </mxCell>
        <mxCell id="a_Zylrl6LcabE5W4-iHh-35" value="&lt;i style=&quot;font-family: &amp;quot;Times New Roman&amp;quot;; font-size: 10px;&quot;&gt;M&lt;sub&gt;2&lt;/sub&gt;&lt;/i&gt;" style="text;html=1;align=center;verticalAlign=middle;resizable=0;points=[];autosize=1;strokeColor=none;fillColor=none;" vertex="1" parent="1">
          <mxGeometry x="165" y="460" width="40" height="30" as="geometry" />
        </mxCell>
        <mxCell id="a_Zylrl6LcabE5W4-iHh-163" value="M2&amp;gt;CA" style="rounded=0;whiteSpace=wrap;html=1;fontSize=10;fontFamily=Times New Roman;fontStyle=2;fillColor=#f5f5f5;strokeColor=#666666;fillStyle=solid;fontColor=#333333;" vertex="1" parent="1">
          <mxGeometry x="390" y="580" width="40" height="20" as="geometry" />
        </mxCell>
        <mxCell id="a_Zylrl6LcabE5W4-iHh-164" value="CA&amp;gt;M1" style="rounded=0;whiteSpace=wrap;html=1;fontSize=10;fontFamily=Times New Roman;fontStyle=2;fillColor=#f5f5f5;strokeColor=#666666;fillStyle=solid;fontColor=#333333;" vertex="1" parent="1">
          <mxGeometry x="460" y="580" width="40" height="20" as="geometry" />
        </mxCell>
        <mxCell id="a_Zylrl6LcabE5W4-iHh-165" value="M2&amp;gt;M1" style="rounded=0;whiteSpace=wrap;html=1;fontSize=10;fontFamily=Times New Roman;fontStyle=2;fillColor=#e1d5e7;strokeColor=#9673a6;fillStyle=solid;" vertex="1" parent="1">
          <mxGeometry x="300" y="580" width="50" height="20" as="geometry" />
        </mxCell>
        <mxCell id="a_Zylrl6LcabE5W4-iHh-166" value="M1&amp;gt;M2" style="rounded=0;whiteSpace=wrap;html=1;fontSize=10;fontFamily=Times New Roman;fontStyle=2;fillColor=#ffe6cc;strokeColor=#d79b00;fillStyle=solid;" vertex="1" parent="1">
          <mxGeometry x="500" y="580" width="50" height="20" as="geometry" />
        </mxCell>
        <mxCell id="a_Zylrl6LcabE5W4-iHh-167" value="M2&amp;gt;M1" style="rounded=0;whiteSpace=wrap;html=1;fontSize=10;fontFamily=Times New Roman;fontStyle=2;fillColor=#f5f5f5;strokeColor=#666666;fillStyle=solid;fontColor=#333333;" vertex="1" parent="1">
          <mxGeometry x="550" y="580" width="60" height="20" as="geometry" />
        </mxCell>
        <mxCell id="a_Zylrl6LcabE5W4-iHh-168" value="M1&amp;gt;L/U" style="rounded=0;whiteSpace=wrap;html=1;fontSize=10;fontFamily=Times New Roman;fontStyle=2;fillColor=#e1d5e7;strokeColor=#9673a6;fillStyle=solid;" vertex="1" parent="1">
          <mxGeometry x="610" y="580" width="50" height="20" as="geometry" />
        </mxCell>
        <mxCell id="a_Zylrl6LcabE5W4-iHh-169" value="L/U&amp;gt;M2" style="rounded=0;whiteSpace=wrap;html=1;fontSize=10;fontFamily=Times New Roman;fontStyle=2;fillColor=#e1d5e7;strokeColor=#9673a6;fillStyle=solid;" vertex="1" parent="1">
          <mxGeometry x="200" y="540" width="50" height="20" as="geometry" />
        </mxCell>
        <mxCell id="a_Zylrl6LcabE5W4-iHh-170" value="M1&amp;gt;M2" style="rounded=0;whiteSpace=wrap;html=1;fontSize=10;fontFamily=Times New Roman;fontStyle=2;fillColor=#f5f5f5;strokeColor=#666666;fillStyle=solid;fontColor=#333333;" vertex="1" parent="1">
          <mxGeometry x="240" y="580" width="60" height="20" as="geometry" />
        </mxCell>
        <mxCell id="a_Zylrl6LcabE5W4-iHh-171" value="M2&amp;gt;L/U" style="rounded=0;whiteSpace=wrap;html=1;fontSize=10;fontFamily=Times New Roman;fontStyle=2;fillColor=#f5f5f5;strokeColor=#666666;fillStyle=solid;fontColor=#333333;" vertex="1" parent="1">
          <mxGeometry x="250" y="540" width="50" height="20" as="geometry" />
        </mxCell>
        <mxCell id="a_Zylrl6LcabE5W4-iHh-172" value="L/U&amp;gt;M1" style="rounded=0;whiteSpace=wrap;html=1;fontSize=10;fontFamily=Times New Roman;fontStyle=2;fillColor=#ffe6cc;strokeColor=#d79b00;fillStyle=solid;" vertex="1" parent="1">
          <mxGeometry x="300" y="540" width="40" height="20" as="geometry" />
        </mxCell>
        <mxCell id="a_Zylrl6LcabE5W4-iHh-173" value="M1&amp;gt;CA" style="rounded=0;whiteSpace=wrap;html=1;fontSize=10;fontFamily=Times New Roman;fontStyle=2;fillColor=#f5f5f5;strokeColor=#666666;fillStyle=solid;fontColor=#333333;" vertex="1" parent="1">
          <mxGeometry x="340" y="540" width="40" height="20" as="geometry" />
        </mxCell>
        <mxCell id="a_Zylrl6LcabE5W4-iHh-174" value="CA&amp;gt;M2" style="rounded=0;whiteSpace=wrap;html=1;fontSize=10;fontFamily=Times New Roman;fontStyle=2;fillColor=#f5f5f5;strokeColor=#666666;fillStyle=solid;fontColor=#333333;" vertex="1" parent="1">
          <mxGeometry x="410" y="540" width="40" height="20" as="geometry" />
        </mxCell>
        <mxCell id="a_Zylrl6LcabE5W4-iHh-175" value="M2&amp;gt;L/U" style="rounded=0;whiteSpace=wrap;html=1;fontSize=10;fontFamily=Times New Roman;fontStyle=2;fillColor=#d5e8d4;strokeColor=#82b366;fillStyle=solid;" vertex="1" parent="1">
          <mxGeometry x="450" y="540" width="70" height="20" as="geometry" />
        </mxCell>
        <mxCell id="a_Zylrl6LcabE5W4-iHh-178" value="L/U&amp;gt;M2" style="rounded=0;whiteSpace=wrap;html=1;fontSize=10;fontFamily=Times New Roman;fontStyle=2;fillColor=#f5f5f5;strokeColor=#666666;fillStyle=solid;fontColor=#333333;" vertex="1" parent="1">
          <mxGeometry x="520" y="540" width="70" height="20" as="geometry" />
        </mxCell>
        <mxCell id="a_Zylrl6LcabE5W4-iHh-179" value="M2&amp;gt;L/U" style="rounded=0;whiteSpace=wrap;html=1;fontSize=10;fontFamily=Times New Roman;fontStyle=2;fillColor=#ffe6cc;strokeColor=#d79b00;fillStyle=solid;" vertex="1" parent="1">
          <mxGeometry x="590" y="540" width="50" height="20" as="geometry" />
        </mxCell>
        <mxCell id="a_Zylrl6LcabE5W4-iHh-181" value="&lt;font face=&quot;Times New Roman&quot;&gt;&lt;span style=&quot;font-size: 10px;&quot;&gt;&lt;i&gt;CA&lt;/i&gt;&lt;/span&gt;&lt;/font&gt;" style="text;html=1;align=center;verticalAlign=middle;resizable=0;points=[];autosize=1;strokeColor=none;fillColor=none;" vertex="1" parent="1">
          <mxGeometry x="165" y="415" width="40" height="30" as="geometry" />
        </mxCell>
      </root>
    </mxGraphModel>
  </diagram>
</mxfile>
